<svg id="Layer_1" data-name="Layer 1" xmlns="http://www.w3.org/2000/svg" width="1445" height="467" viewBox="0 0 1445 467">
  <g>
    <path d="M304.65,233.88c0-44.49,36.63-80.47,82.43-80.47,46.12,0,82.76,36,82.76,80.47,0,44.16-36.64,80.8-82.76,80.8C341.28,314.68,304.65,278,304.65,233.88Zm125.61,0c0-22.24-19.3-41.87-43.18-41.87-23.55,0-42.85,19.63-42.85,41.87,0,22.57,19.3,42.2,42.85,42.2C411,276.08,430.26,256.45,430.26,233.88Z"/>
    <path d="M1135.89,235.19c0-48.74,39.58-81.78,75.57-81.78,24.53,0,38.6,7.52,48.08,21.92l3.77-19h36.79V311.73h-36.79l-4.75-16c-10.79,11.78-24.21,19-47.1,19C1176.13,314.68,1135.89,283.6,1135.89,235.19Zm125.61-.33a43,43,0,0,0-86,.33c0,21.59,19.3,40.89,42.86,40.89C1242.21,276.08,1261.5,256.78,1261.5,234.86Z"/>
    <path d="M1090.68,174.34v-18h-40.23V311.73h40.23V228c0-25.19,12.44-38.27,34-38.27,1.43,0,2.79.1,4.12.23l7.46-37.51C1115.29,152.56,1100.09,159.75,1090.68,174.34Z"/>
    <path d="M686.41,174.35l0-18-40.23.09.34,155.37,40.23-.09L686.53,228c-.06-25.18,12.35-38.29,33.93-38.34a39.06,39.06,0,0,1,4.12.23L732,152.34C711,152.51,695.78,159.73,686.41,174.35Z"/>
    <path d="M483.78,251.54V156.35H524v90.29c0,19.95,11.12,31.73,30.42,31.73,21.59,0,34-13.09,34-38.28V156.35h40.24V311.73H588.45v-18c-9.48,14.72-24.86,21.92-46.12,21.92C506.35,315.66,483.78,289.49,483.78,251.54Z"/>
    <path d="M875.52,234.06c.09-43.51,31.23-80.74,80.62-80.65,45.8.09,78.11,36.78,78,80a80.06,80.06,0,0,1-1,12.76l-118.41-.22c4.54,18.65,19.89,32.09,43.12,32.14,14.06,0,29.12-5.18,38.3-16.94l27.44,22c-14.11,19.93-39,31.66-65.48,31.61C911.36,314.6,875.44,279.53,875.52,234.06Zm118.12-16.14c-2.26-15.7-18.59-27.84-37.89-27.87-18.65,0-33.71,11.06-39.63,27.73Z"/>
    <path d="M732.24,277.86,768,259.14c5.91,12.81,17.73,20.36,34.48,20.36,15.43,0,21.34-4.92,21.34-11.82,0-25-84.71-9.85-84.71-67,0-31.52,27.58-48.26,61.72-48.26,25.94,0,48.92,11.49,61.4,32.83L826.79,204c-5.25-10.51-15.1-16.42-27.58-16.42-12.14,0-18.06,4.27-18.06,11.49,0,24.3,84.71,8.87,84.71,67,0,30.21-24.62,48.59-64.35,48.59C767.69,314.63,744.05,303.47,732.24,277.86Z"/>
    <path d="M144.9,233.88c0-44.81,36.63-80.8,82.43-80.8a83,83,0,0,1,69.67,37L262.66,210a42.94,42.94,0,0,0-35.33-18.32c-23.55,0-42.85,19.63-42.85,42.2s19.3,42.2,42.85,42.2a42.46,42.46,0,0,0,36.31-20l34,20.28a82.94,82.94,0,0,1-70.33,38.28C181.53,314.68,144.9,278,144.9,233.88Z"/>
  </g>
</svg>
